<svg xmlns="http://www.w3.org/2000/svg" width="520" height="300" viewBox="0 0 520 300" role="img" aria-label="I built a phone. It only works in GTA.">
<path d="M19.9921875 29.335011135599586Q19.9921875 28.983448635599586 20.16796875 28.680714260599586Q20.34375 28.377979885599586 20.65625 28.153370510599586Q20.96875 27.928761135599586 21.388671875 27.792042385599586Q21.80859375 27.655323635599586 22.27734375 27.655323635599586Q23.1953125 27.655323635599586 23.625 27.948292385599586Q24.0546875 28.241261135599586 24.15234375 28.866261135599586Q24.484375 31.463917385599586 24.708984375 33.778370510599586Q24.93359375 36.092823635599586 25.0703125 38.192433010599586Q25.20703125 40.292042385599586 25.265625 42.215870510599586Q25.32421875 44.139698635599586 25.32421875 45.936573635599586Q25.32421875 46.913136135599586 24.630859375 47.401417385599586Q23.9375 47.889698635599586 22.609375 47.889698635599586Q22.00390625 47.889698635599586 21.662109375 47.606495510599586Q21.3203125 47.323292385599586 21.3203125 46.776417385599586Q21.3203125 43.417042385599586 21.115234375 40.477589260599586Q20.91015625 37.538136135599586 20.65625 35.252979885599586Q20.40234375 32.967823635599586 20.197265625 31.434620510599586Q19.9921875 29.901417385599586 19.9921875 29.335011135599586ZM39.484375 43.85052398529565Q39.11328125 39.28021148529565 38.634765625 34.76849273529565Q38.15625 30.256773985295652 37.23828125 25.764586485295652Q37.19921875 25.608336485295652 37.19921875 25.481383360295652Q37.19921875 25.354430235295652 37.19921875 25.237242735295652Q37.19921875 24.788023985295652 37.384765625 24.455992735295652Q37.5703125 24.123961485295652 37.8828125 23.899352110295652Q38.1953125 23.674742735295652 38.595703125 23.557555235295652Q38.99609375 23.440367735295652 39.4453125 23.440367735295652Q40.63671875 23.440367735295652 41.0859375 24.553648985295652Q41.28125 25.120055235295652 41.486328125 26.174742735295652Q41.69140625 27.229430235295652 41.916015625 28.616148985295652Q42.140625 30.002867735295652 42.35546875 31.653258360295652Q42.5703125 33.30364898529565 42.765625 35.04193023529565Q42.82421875 35.53021148529565 43.078125 35.53021148529565Q43.29296875 35.53021148529565 43.52734375 35.23724273529565Q46.37890625 31.487242735295652 50.28515625 31.487242735295652Q51.75 31.487242735295652 53.01953125 32.13177398529565Q54.2890625 32.77630523529565 55.2265625 33.88958648529565Q56.1640625 35.00286773529565 56.701171875 36.52630523529565Q57.23828125 38.04974273529565 57.23828125 39.80755523529565Q57.23828125 41.44818023529565 56.720703125 42.85443023529565Q56.203125 44.26068023529565 55.28515625 45.27630523529565Q54.3671875 46.29193023529565 53.107421875 46.86810211029565Q51.84765625 47.44427398529565 50.36328125 47.44427398529565Q48.52734375 47.44427398529565 46.76953125 46.73138336029565Q45.01171875 46.01849273529565 43.44921875 44.80755523529565Q43.2734375 44.65130523529565 43.078125 44.65130523529565Q42.82421875 44.65130523529565 42.609375 44.92474273529565Q42.296875 45.27630523529565 41.9453125 45.38372711029565Q41.59375 45.49114898529565 41.0859375 45.49114898529565Q39.54296875 45.49114898529565 39.484375 43.85052398529565ZM49.6015625 35.12005523529565Q48.8203125 35.12005523529565 48.048828125 35.48138336029565Q47.27734375 35.84271148529565 46.59375 36.50677398529565Q45.91015625 37.17083648529565 45.333984375 38.09857086029565Q44.7578125 39.02630523529565 44.3671875 40.15911773529565Q44.328125 40.21771148529565 44.30859375 40.33489898529565Q44.2890625 40.45208648529565 44.2890625 40.53021148529565Q44.2890625 40.86224273529565 44.5234375 41.03802398529565Q45.2265625 41.64349273529565 45.978515625 42.17083648529565Q46.73046875 42.69818023529565 47.47265625 43.08880523529565Q48.21484375 43.47943023529565 48.9375 43.70403961029565Q49.66015625 43.92864898529565 50.28515625 43.92864898529565Q51.69140625 43.92864898529565 52.423828125 43.10833648529565Q53.15625 42.28802398529565 53.15625 40.72552398529565Q53.15625 39.51458648529565 52.8828125 38.48919586029565Q52.609375 37.46380523529565 52.140625 36.71185211029565Q51.671875 35.95989898529565 51.017578125 35.53997711029565Q50.36328125 35.12005523529565 49.6015625 35.12005523529565ZM63.91796875 40.0597845880021Q63.91796875 42.6769720880021 64.71875 44.1027533380021Q65.51953125 45.5285345880021 67.04296875 45.5285345880021Q68.0 45.5285345880021 68.810546875 44.9621283380021Q69.62109375 44.3957220880021 70.20703125 43.3800970880021Q70.79296875 42.3644720880021 71.115234375 40.9679877130021Q71.4375 39.5715033380021 71.4375 37.9308783380021Q71.4375 36.9347845880021 71.359375 36.2023627130021Q71.28125 35.4699408380021 71.193359375 34.8937689630021Q71.10546875 34.3175970880021 71.02734375 33.8683783380021Q70.94921875 33.4191595880021 70.94921875 33.0090033380021Q70.94921875 32.3840033380021 71.4765625 32.1008002130021Q72.00390625 31.817597088002103 73.15625 31.817597088002103Q74.62109375 31.817597088002103 75.431640625 32.4816595880021Q76.2421875 33.1457220880021 76.2421875 34.4152533380021Q76.2421875 37.8722845880021 75.568359375 40.6261908380021Q74.89453125 43.3800970880021 73.634765625 45.3039252130021Q72.375 47.2277533380021 70.578125 48.2629095880021Q68.78125 49.2980658380021 66.5546875 49.2980658380021Q64.97265625 49.2980658380021 63.634765625 48.6437689630021Q62.296875 47.9894720880021 61.330078125 46.8078314630021Q60.36328125 45.6261908380021 59.81640625 43.9953314630021Q59.26953125 42.3644720880021 59.26953125 40.4113470880021Q59.26953125 39.6691595880021 59.30859375 38.8293158380021Q59.34765625 37.9894720880021 59.42578125 37.0226752130021Q59.50390625 36.0558783380021 59.630859375 34.9230658380021Q59.7578125 33.7902533380021 59.9140625 32.4621283380021Q59.97265625 31.895722088002103 60.451171875 31.553925213002103Q60.9296875 31.212128338002103 61.671875 31.212128338002103Q62.3359375 31.212128338002103 62.921875 31.348847088002103Q63.5078125 31.485565838002103 63.927734375 31.719940838002103Q64.34765625 31.954315838002103 64.591796875 32.2668158380021Q64.8359375 32.5793158380021 64.8359375 32.9308783380021Q64.8359375 33.2824408380021 64.689453125 34.0343939630021Q64.54296875 34.7863470880021 64.376953125 35.7531439630021Q64.2109375 36.7199408380021 64.064453125 37.8429877130021Q63.91796875 38.9660345880021 63.91796875 40.0597845880021ZM81.515625 28.16424181033605Q80.94921875 28.16424181033605 80.451171875 27.99822618533605Q79.953125 27.83221056033605 79.591796875 27.52947618533605Q79.23046875 27.22674181033605 79.015625 26.81658556033605Q78.80078125 26.40642931033605 78.80078125 25.91814806033605Q78.80078125 25.09783556033605 79.455078125 24.59002306033605Q80.109375 24.08221056033605 81.203125 24.08221056033605Q81.7109375 24.08221056033605 82.1796875 24.26775743533605Q82.6484375 24.45330431033605 83.009765625 24.76580431033605Q83.37109375 25.07830431033605 83.5859375 25.49822618533605Q83.80078125 25.91814806033605 83.80078125 26.36736681033605Q83.80078125 27.20721056033605 83.185546875 27.68572618533605Q82.5703125 28.16424181033605 81.515625 28.16424181033605ZM78.83984375 34.12127306033605Q78.83984375 33.43767931033605 79.435546875 32.99822618533605Q80.03125 32.55877306033605 81.0078125 32.55877306033605Q82.765625 32.55877306033605 82.8828125 33.76971056033605Q82.9609375 34.60955431033605 83.048828125 35.66424181033605Q83.13671875 36.71892931033605 83.224609375 37.90056993533605Q83.3125 39.08221056033605 83.380859375 40.34197618533605Q83.44921875 41.60174181033605 83.5078125 42.82244493533605Q83.56640625 44.04314806033605 83.60546875 45.17596056033605Q83.64453125 46.30877306033605 83.64453125 47.24627306033605Q83.64453125 48.22283556033605 82.951171875 48.71111681033605Q82.2578125 49.19939806033605 80.9296875 49.19939806033605Q80.32421875 49.19939806033605 79.982421875 48.91619493533605Q79.640625 48.63299181033605 79.640625 48.08611681033605Q79.640625 45.39080431033605 79.513671875 43.03728868533605Q79.38671875 40.68377306033605 79.240234375 38.84783556033605Q79.09375 37.01189806033605 78.966796875 35.79119493533605Q78.83984375 34.57049181033605 78.83984375 34.12127306033605ZM86.203125 25.431559650590202Q86.203125 24.415934650590202 86.7890625 23.986247150590202Q87.375 23.556559650590202 88.72265625 23.556559650590202Q89.19140625 23.556559650590202 89.54296875 23.654215900590202Q89.89453125 23.751872150590202 90.12890625 23.976481525590202Q90.36328125 24.201090900590202 90.509765625 24.581950275590202Q90.65625 24.962809650590202 90.75390625 25.548747150590202Q91.0078125 27.287028400590202 91.271484375 29.191325275590202Q91.53515625 31.095622150590202 91.779296875 32.9803877755902Q92.0234375 34.8651534005902 92.23828125 36.6522627755902Q92.453125 38.4393721505902 92.619140625 39.9725752755902Q92.78515625 41.5057784005902 92.873046875 42.6874190255902Q92.9609375 43.8690596505902 92.9609375 44.5526534005902Q92.9609375 45.2557784005902 92.833984375 45.7440596505902Q92.70703125 46.2323409005902 92.404296875 46.5253096505902Q92.1015625 46.8182784005902 91.623046875 46.9452315255902Q91.14453125 47.0721846505902 90.44140625 47.0721846505902Q89.7578125 47.0721846505902 89.357421875 46.7206221505902Q88.95703125 46.3690596505902 88.95703125 45.6464034005902Q88.95703125 44.9042159005902 88.83984375 43.6639815255902Q88.72265625 42.4237471505902 88.52734375 40.9003096505902Q88.33203125 39.3768721505902 88.087890625 37.6581221505902Q87.84375 35.9393721505902 87.580078125 34.2596846505902Q87.31640625 32.5799971505902 87.072265625 31.027262775590202Q86.828125 29.474528400590202 86.6328125 28.273356525590202Q86.4375 27.072184650590202 86.3203125 26.300700275590202Q86.203125 25.529215900590202 86.203125 25.431559650590202ZM97.8828125 24.380603669459298Q97.8828125 23.345447419459298 98.46875 22.925525544459298Q99.0546875 22.505603669459298 100.40234375 22.505603669459298Q100.890625 22.505603669459298 101.232421875 22.593494294459298Q101.57421875 22.681384919459298 101.818359375 22.915759919459298Q102.0625 23.150134919459298 102.208984375 23.530994294459298Q102.35546875 23.911853669459298 102.453125 24.497791169459298Q102.6875 26.314197419459298 102.970703125 28.247791169459298Q103.25390625 30.181384919459298 103.56640625 32.1345099194593Q103.68359375 33.0134161694593 104.484375 33.0134161694593Q104.69921875 33.0134161694593 105.197265625 32.9645880444593Q105.6953125 32.9157599194593 106.37890625 32.8474005444593Q107.0625 32.7790411694593 107.853515625 32.7009161694593Q108.64453125 32.6227911694593 109.435546875 32.5544317944593Q110.2265625 32.4860724194593 110.939453125 32.4372442944593Q111.65234375 32.3884161694593 112.19921875 32.3884161694593Q112.62890625 32.3884161694593 112.8828125 32.5544317944593Q113.13671875 32.7204474194593 113.283203125 32.9841192944593Q113.4296875 33.2477911694593 113.478515625 33.5700567944593Q113.52734375 33.8923224194593 113.52734375 34.2243536694593Q113.52734375 34.5173224194593 113.419921875 34.8298224194593Q113.3125 35.1423224194593 113.126953125 35.3864630444593Q112.94140625 35.6306036694593 112.66796875 35.7868536694593Q112.39453125 35.9431036694593 112.04296875 35.9431036694593Q110.34375 35.9431036694593 108.615234375 36.0505255444593Q106.88671875 36.1579474194593 105.16796875 36.3337286694593Q104.2890625 36.4509161694593 104.2890625 37.2126349194593Q104.2890625 37.2712286694593 104.30859375 37.3591192944593Q104.328125 37.4470099194593 104.328125 37.5056036694593Q104.5625 39.2048224194593 104.767578125 40.6891974194593Q104.97265625 42.1735724194593 105.119140625 43.3356817944593Q105.265625 44.4977911694593 105.353515625 45.2692755444593Q105.44140625 46.0407599194593 105.44140625 46.2946661694593Q105.44140625 46.9977911694593 105.3046875 47.4763067944593Q105.16796875 47.9548224194593 104.85546875 48.2575567944593Q104.54296875 48.5602911694593 104.025390625 48.6872442944593Q103.5078125 48.8141974194593 102.7265625 48.8141974194593Q101.984375 48.8141974194593 101.6328125 48.4626349194593Q101.28125 48.1110724194593 101.2421875 47.3884161694593Q101.125 45.0837286694593 100.87109375 42.7497442944593Q100.6171875 40.4157599194593 100.28515625 38.0915411694593Q100.109375 37.2516974194593 99.40625 37.2516974194593Q99.34765625 37.2516974194593 99.26953125 37.2712286694593Q99.19140625 37.2907599194593 99.1328125 37.2907599194593Q97.921875 37.5641974194593 96.84765625 37.8376349194593Q95.7734375 38.1110724194593 94.8359375 38.4235724194593Q94.30859375 38.5993536694593 93.8984375 38.6677130444593Q93.48828125 38.7360724194593 93.15625 38.7360724194593Q92.70703125 38.7360724194593 92.4921875 38.3356817944593Q92.27734375 37.9352911694593 92.27734375 37.3298224194593Q92.27734375 37.1149786694593 92.31640625 36.8317755444593Q92.35546875 36.5485724194593 92.462890625 36.2653692944593Q92.5703125 35.9821661694593 92.775390625 35.7380255444593Q92.98046875 35.4938849194593 93.33203125 35.3376349194593Q94.15234375 35.0056036694593 95.51953125 34.6442755444593Q96.88671875 34.2829474194593 98.60546875 33.9704474194593Q98.99609375 33.8727911694593 99.220703125 33.6481817944593Q99.4453125 33.4235724194593 99.4453125 32.9743536694593Q99.4453125 32.8766974194593 99.4453125 32.7692755444593Q99.4453125 32.6618536694593 99.40625 32.5446661694593Q99.09375 30.747791169459298 98.810546875 29.273181794459298Q98.52734375 27.798572419459298 98.322265625 26.743884919459298Q98.1171875 25.689197419459298 98.0 25.083728669459298Q97.8828125 24.478259919459298 97.8828125 24.380603669459298ZM134.1328125 29.81967708026076Q135.20703125 29.81967708026076 136.203125 30.15170833026076Q137.19921875 30.48373958026076 137.9609375 31.06967708026076Q138.72265625 31.65561458026076 139.181640625 32.47592708026076Q139.640625 33.29623958026076 139.640625 34.29233333026076Q139.640625 34.70248958026076 139.455078125 35.08334895526076Q139.26953125 35.46420833026076 138.95703125 35.74741145526076Q138.64453125 36.03061458026076 138.244140625 36.19663020526076Q137.84375 36.36264583026076 137.4140625 36.36264583026076Q137.375 36.36264583026076 137.345703125 36.37241145526076Q137.31640625 36.38217708026076 137.27734375 36.38217708026076Q137.23828125 36.40170833026076 137.19921875 36.40170833026076L137.27734375 37.96420833026076Q137.35546875 40.75717708026076 138.068359375 42.04623958026076Q138.78125 43.33530208026076 139.93359375 43.33530208026076Q140.34375 43.33530208026076 140.666015625 43.25717708026076Q140.98828125 43.17905208026076 141.271484375 43.07163020526076Q141.5546875 42.96420833026076 141.80859375 42.88608333026076Q142.0625 42.80795833026076 142.31640625 42.80795833026076Q142.765625 42.80795833026076 143.107421875 43.19858333026076Q143.44921875 43.58920833026076 143.44921875 44.13608333026076Q143.44921875 44.68295833026076 143.029296875 45.22983333026076Q142.609375 45.77670833026076 141.92578125 46.21616145526076Q141.2421875 46.65561458026076 140.3828125 46.92905208026076Q139.5234375 47.20248958026076 138.64453125 47.20248958026076Q137.12109375 47.20248958026076 135.96875 45.94272395526076Q134.81640625 44.68295833026076 134.328125 42.24155208026076Q134.2109375 41.85092708026076 134.015625 41.85092708026076Q133.78125 41.85092708026076 133.60546875 42.08530208026076Q131.671875 44.52670833026076 129.484375 45.74741145526076Q127.296875 46.96811458026076 125.16796875 46.96811458026076Q124.171875 46.96811458026076 123.37109375 46.67514583026076Q122.5703125 46.38217708026076 122.013671875 45.84506770526076Q121.45703125 45.30795833026076 121.154296875 44.53647395526076Q120.8515625 43.76498958026076 120.8515625 42.80795833026076Q120.8515625 41.46030208026076 121.447265625 39.97592708026076Q122.04296875 38.49155208026076 123.05859375 37.04623958026076Q124.07421875 35.60092708026076 125.412109375 34.29233333026076Q126.75 32.98373958026076 128.224609375 31.98764583026076Q129.69921875 30.99155208026076 131.22265625 30.40561458026076Q132.74609375 29.81967708026076 134.1328125 29.81967708026076ZM133.48828125 36.57748958026076Q133.83984375 35.91342708026076 134.1328125 35.61069270526076Q134.42578125 35.30795833026076 134.97265625 35.21030208026076Q135.40234375 35.15170833026076 135.40234375 34.93686458026076Q135.40234375 34.78061458026076 135.28515625 34.60483333026076Q134.9140625 34.09702083026076 134.50390625 33.71616145526076Q134.09375 33.33530208026076 133.41015625 33.33530208026076Q132.66796875 33.33530208026076 131.75 33.76498958026076Q130.83203125 34.19467708026076 129.884765625 34.90756770526076Q128.9375 35.62045833026076 128.029296875 36.52866145526076Q127.12109375 37.43686458026076 126.41796875 38.39389583026076Q125.71484375 39.35092708026076 125.28515625 40.28842708026076Q124.85546875 41.22592708026076 124.85546875 41.96811458026076Q124.85546875 42.63217708026076 125.216796875 43.00327083026076Q125.578125 43.37436458026076 126.203125 43.37436458026076Q127.8046875 43.37436458026076 129.69921875 41.67514583026076Q131.59375 39.97592708026076 133.48828125 36.57748958026076ZM151.65234375 33.334840516579085Q151.65234375 32.573121766579085 152.3359375 32.172731141579085Q153.01953125 31.772340516579085 154.2890625 31.772340516579085Q154.58203125 31.772340516579085 154.81640625 31.850465516579085Q155.05078125 31.928590516579085 155.236328125 32.153199891579085Q155.421875 32.377809266579085 155.578125 32.768434266579085Q155.734375 33.159059266579085 155.890625 33.764528016579085Q156.046875 34.448121766579085 156.203125 34.448121766579085Q156.33984375 34.448121766579085 156.53515625 33.881715516579085Q156.88671875 32.768434266579085 157.462890625 31.938356141579085Q158.0390625 31.108278016579085 158.76171875 30.551637391579085Q159.484375 29.994996766579085 160.333984375 29.721559266579085Q161.18359375 29.448121766579085 162.12109375 29.448121766579085Q164.015625 29.448121766579085 165.65625 30.161012391579085Q167.296875 30.873903016579085 168.48828125 32.133668641579085Q169.6796875 33.393434266579085 170.36328125 35.102418641579085Q171.046875 36.811403016579085 171.046875 38.803590516579085Q171.046875 40.912965516579085 170.314453125 42.709840516579085Q169.58203125 44.506715516579085 168.2734375 45.805543641579085Q166.96484375 47.104371766579085 165.158203125 47.836793641579085Q163.3515625 48.569215516579085 161.203125 48.569215516579085L160.20703125 48.530153016579085Q159.328125 48.530153016579085 159.328125 49.526246766579085L160.32421875 58.491090516579085Q160.3046875 58.823121766579085 160.099609375 59.106324891579085Q159.89453125 59.389528016579085 159.552734375 59.604371766579085Q159.2109375 59.819215516579085 158.751953125 59.936403016579085Q158.29296875 60.053590516579085 157.8046875 60.053590516579085Q156.3984375 60.053590516579085 156.28125 59.135621766579085Q155.87109375 55.580934266579085 155.373046875 52.377809266579085Q154.875 49.174684266579085 154.357421875 46.411012391579085Q153.83984375 43.647340516579085 153.3515625 41.381715516579085Q152.86328125 39.116090516579085 152.482421875 37.436403016579085Q152.1015625 35.756715516579085 151.876953125 34.702028016579085Q151.65234375 33.647340516579085 151.65234375 33.334840516579085ZM158.0 38.491090516579085Q158.0 39.760621766579085 158.09765625 41.000856141579085Q158.1953125 42.241090516579085 158.41015625 43.686403016579085Q158.52734375 44.565309266579085 159.3671875 44.682496766579085Q159.875 44.799684266579085 160.509765625 44.907106141579085Q161.14453125 45.014528016579085 161.57421875 45.014528016579085Q162.82421875 45.014528016579085 163.83984375 44.643434266579085Q164.85546875 44.272340516579085 165.578125 43.578981141579085Q166.30078125 42.885621766579085 166.69140625 41.928590516579085Q167.08203125 40.971559266579085 167.08203125 39.799684266579085Q167.08203125 38.373903016579085 166.69140625 37.133668641579085Q166.30078125 35.893434266579085 165.626953125 34.975465516579085Q164.953125 34.057496766579085 164.044921875 33.530153016579085Q163.13671875 33.002809266579085 162.08203125 33.002809266579085Q161.1640625 33.002809266579085 160.412109375 33.403199891579085Q159.66015625 33.803590516579085 159.123046875 34.516481141579085Q158.5859375 35.229371766579085 158.29296875 36.244996766579085Q158.0 37.260621766579085 158.0 38.491090516579085ZM172.6875 28.209117482025277Q172.6875 26.099742482025277 175.421875 26.099742482025277Q175.890625 26.099742482025277 176.2421875 26.353648732025277Q176.59375 26.607554982025277 176.65234375 27.056773732025277Q176.828125 28.248179982025277 176.96484375 29.420054982025277Q177.1015625 30.591929982025277 177.228515625 32.04700810702528Q177.35546875 33.50208623202528 177.482421875 35.40638310702528Q177.609375 37.31067998202528 177.765625 39.94739873202528Q177.765625 40.22083623202528 177.853515625 40.33802373202528Q177.94140625 40.45521123202528 178.05859375 40.45521123202528Q178.234375 40.45521123202528 178.41015625 40.10364873202528Q179.07421875 38.63880498202528 179.89453125 37.47669560702528Q180.71484375 36.31458623202528 181.65234375 35.50403935702528Q182.58984375 34.69349248202528 183.634765625 34.27357060702528Q184.6796875 33.85364873202528 185.7734375 33.85364873202528Q187.21875 33.85364873202528 188.390625 34.67396123202528Q189.5625 35.49427373202528 190.3828125 36.99817998202528Q191.203125 38.50208623202528 191.65234375 40.64075810702528Q192.1015625 42.77942998202528 192.1015625 45.41614873202528Q192.1015625 46.13880498202528 191.994140625 46.59778935702528Q191.88671875 47.05677373202528 191.6328125 47.33021123202528Q191.37890625 47.60364873202528 190.9296875 47.71107060702528Q190.48046875 47.81849248202528 189.81640625 47.81849248202528Q188.8984375 47.81849248202528 188.498046875 47.46692998202528Q188.09765625 47.11536748202528 188.09765625 46.37317998202528Q188.09765625 44.53724248202528 187.853515625 42.90638310702528Q187.609375 41.27552373202528 187.1796875 40.04505498202528Q186.75 38.81458623202528 186.173828125 38.09192998202528Q185.59765625 37.36927373202528 184.93359375 37.36927373202528Q183.4296875 37.36927373202528 181.935546875 39.81067998202528Q180.44140625 42.25208623202528 178.8203125 47.17396123202528Q178.6640625 47.62317998202528 178.46875 47.91614873202528Q178.2734375 48.20911748202528 178.009765625 48.38489873202528Q177.74609375 48.56067998202528 177.375 48.62903935702528Q177.00390625 48.69739873202528 176.49609375 48.69739873202528Q175.4609375 48.69739873202528 175.021484375 48.30677373202528Q174.58203125 47.91614873202528 174.54296875 47.01771123202528Q174.42578125 43.61927373202528 174.123046875 40.52357060702528Q173.8203125 37.42786748202528 173.498046875 34.91810185702528Q173.17578125 32.40833623202528 172.931640625 30.660289357025277Q172.6875 28.912242482025277 172.6875 28.209117482025277ZM194.97265625 41.33447105394203Q194.97265625 41.00243980394203 195.05078125 40.59228355394203Q195.12890625 40.18212730394203 195.12890625 39.69384605394203Q195.12890625 39.36181480394203 194.845703125 39.18603355394203Q194.5625 39.01025230394203 194.2109375 38.79540855394203Q193.859375 38.58056480394203 193.576171875 38.24853355394203Q193.29296875 37.91650230394203 193.29296875 37.29150230394203Q193.29296875 36.84228355394203 193.537109375 36.39306480394203Q193.78125 35.94384605394203 194.25 35.57275230394203Q195.40234375 34.71337730394203 196.642578125 34.02978355394203Q197.8828125 33.34618980394203 199.123046875 32.87743980394203Q200.36328125 32.40868980394203 201.57421875 32.15478355394203Q202.78515625 31.900877303942032 203.8984375 31.900877303942032Q205.7734375 31.900877303942032 207.423828125 32.59423667894203Q209.07421875 33.28759605394203 210.294921875 34.48876792894203Q211.515625 35.68993980394203 212.228515625 37.30126792894203Q212.94140625 38.91259605394203 212.94140625 40.74853355394203Q212.94140625 42.54540855394203 212.189453125 44.15673667894203Q211.4375 45.76806480394203 210.16796875 46.97900230394203Q208.8984375 48.18993980394203 207.189453125 48.90283042894203Q205.48046875 49.61572105394203 203.5859375 49.61572105394203Q201.73046875 49.61572105394203 200.1484375 48.99072105394203Q198.56640625 48.36572105394203 197.4140625 47.26220542894203Q196.26171875 46.15868980394203 195.6171875 44.64501792894203Q194.97265625 43.13134605394203 194.97265625 41.33447105394203ZM204.015625 46.10009605394203Q204.8359375 46.10009605394203 205.71484375 45.76806480394203Q206.59375 45.43603355394203 207.326171875 44.80126792894203Q208.05859375 44.16650230394203 208.537109375 43.24853355394203Q209.015625 42.33056480394203 209.015625 41.17822105394203Q209.015625 40.00634605394203 208.5859375 38.99072105394203Q208.15625 37.97509605394203 207.404296875 37.22314292894203Q206.65234375 36.47118980394203 205.626953125 36.04150230394203Q204.6015625 35.61181480394203 203.41015625 35.61181480394203Q201.2421875 35.61181480394203 200.08984375 36.73486167894203Q198.9375 37.85790855394203 198.9375 40.18212730394203Q198.9375 41.45165855394203 199.318359375 42.53564292894203Q199.69921875 43.61962730394203 200.3828125 44.41064292894203Q201.06640625 45.20165855394203 201.994140625 45.65087730394203Q202.921875 46.10009605394203 204.015625 46.10009605394203ZM215.8125 33.02272634921289Q215.8125 32.72975759921289 216.06640625 32.44655447421289Q216.3203125 32.16335134921289 216.73046875 31.93874197421289Q217.140625 31.71413259921289 217.658203125 31.56764822421289Q218.17578125 31.42116384921289 218.703125 31.42116384921289Q218.99609375 31.42116384921289 219.201171875 31.57741384921289Q219.40625 31.73366384921289 219.5625 32.17311697421289Q219.71875 32.61257009921289 219.845703125 33.40358572421289Q219.97265625 34.19460134921289 220.08984375 35.46413259921289Q220.16796875 35.85475759921289 220.236328125 36.05983572421289Q220.3046875 36.26491384921289 220.421875 36.26491384921289Q220.59765625 36.26491384921289 220.7734375 35.65944509921289Q222.19921875 31.53835134921289 224.89453125 31.53835134921289Q226.14453125 31.53835134921289 227.169921875 32.31960134921289Q228.1953125 33.10085134921289 229.083984375 34.86842947421289Q229.97265625 36.63600759921289 230.7734375 39.51686697421289Q231.57421875 42.39772634921289 232.375 46.61647634921289Q232.4140625 46.83132009921289 232.43359375 47.00710134921289Q232.453125 47.18288259921289 232.453125 47.33913259921289Q232.453125 47.78835134921289 232.248046875 48.11061697421289Q232.04296875 48.43288259921289 231.7109375 48.63796072421289Q231.37890625 48.84303884921289 230.96875 48.95046072421289Q230.55859375 49.05788259921289 230.1484375 49.05788259921289Q229.328125 49.05788259921289 228.966796875 48.88210134921289Q228.60546875 48.70632009921289 228.5078125 48.21803884921289Q227.94140625 45.24928884921289 227.404296875 42.94460134921289Q226.8671875 40.63991384921289 226.349609375 39.06764822421289Q225.83203125 37.49538259921289 225.32421875 36.67507009921289Q224.81640625 35.85475759921289 224.30859375 35.85475759921289Q223.80078125 35.85475759921289 223.361328125 36.48952322421289Q222.921875 37.12428884921289 222.51171875 38.47194509921289Q222.1015625 39.81960134921289 221.720703125 41.88991384921289Q221.33984375 43.96022634921289 220.98828125 46.83132009921289Q220.890625 47.61257009921289 220.20703125 48.08132009921289Q219.5234375 48.55007009921289 218.46875 48.55007009921289Q217.765625 48.55007009921289 217.39453125 48.25710134921289Q217.0234375 47.96413259921289 216.984375 47.45632009921289Q216.80859375 43.39382009921289 216.603515625 40.76686697421289Q216.3984375 38.13991384921289 216.22265625 36.54811697421289Q216.046875 34.95632009921289 215.9296875 34.17507009921289Q215.8125 33.39382009921289 215.8125 33.02272634921289ZM251.10546875 42.819780956759146Q251.671875 42.331499706759146 252.21875 42.331499706759146Q252.53125 42.331499706759146 252.78515625 42.487749706759146Q253.0390625 42.643999706759146 253.3515625 42.976030956759146Q253.64453125 43.425249706759146 253.771484375 43.708452831759146Q253.8984375 43.991655956759146 253.8984375 44.265093456759146Q253.8984375 44.851030956759146 253.3125 45.378374706759146Q252.375 46.159624706759146 251.28125 46.774859081759146Q250.1875 47.390093456759146 248.99609375 47.819780956759146Q247.8046875 48.249468456759146 246.53515625 48.474077831759146Q245.265625 48.698687206759146 244.015625 48.698687206759146Q242.43359375 48.698687206759146 241.046875 48.298296581759146Q239.66015625 47.897905956759146 238.576171875 47.155718456759146Q237.4921875 46.413530956759146 236.75 45.368609081759146Q236.0078125 44.323687206759146 235.6953125 43.015093456759146Q235.51953125 42.468218456759146 235.373046875 42.302202831759146Q235.2265625 42.136187206759146 234.89453125 42.136187206759146Q234.171875 42.136187206759146 233.78125 41.784624706759146Q233.390625 41.433062206759146 233.390625 40.768999706759146Q233.390625 40.495562206759146 233.4296875 40.417437206759146L233.46875 40.026812206759146Q233.56640625 39.323687206759146 233.849609375 39.011187206759146Q234.1328125 38.698687206759146 234.73828125 38.698687206759146H235.03125Q235.8515625 38.698687206759146 236.18359375 37.936968456759146Q236.7890625 36.589312206759146 237.7265625 35.476030956759146Q238.6640625 34.362749706759146 239.8359375 33.571734081759146Q241.0078125 32.780718456759146 242.345703125 32.341265331759146Q243.68359375 31.901812206759146 245.0703125 31.901812206759146Q246.515625 31.901812206759146 247.775390625 32.321734081759146Q249.03515625 32.741655956759146 249.97265625 33.483843456759146Q250.91015625 34.226030956759146 251.447265625 35.222124706759146Q251.984375 36.218218456759146 251.984375 37.370562206759146Q251.984375 38.171343456759146 251.671875 38.835405956759146Q251.359375 39.499468456759146 250.7734375 39.997515331759146Q250.1875 40.495562206759146 249.357421875 40.808062206759146Q248.52734375 41.120562206759146 247.47265625 41.218218456759146L240.6953125 41.901812206759146Q240.3046875 41.901812206759146 240.060546875 42.097124706759146Q239.81640625 42.292437206759146 239.81640625 42.624468456759146Q239.81640625 43.132280956759146 240.197265625 43.601030956759146Q240.578125 44.069780956759146 241.212890625 44.431109081759146Q241.84765625 44.792437206759146 242.677734375 45.007280956759146Q243.5078125 45.222124706759146 244.38671875 45.222124706759146Q245.2265625 45.222124706759146 246.115234375 45.056109081759146Q247.00390625 44.890093456759146 247.873046875 44.577593456759146Q248.7421875 44.265093456759146 249.5625 43.825640331759146Q250.3828125 43.386187206759146 251.10546875 42.819780956759146ZM246.75 37.780718456759146Q247.04296875 37.722124706759146 247.2578125 37.497515331759146Q247.47265625 37.272905956759146 247.47265625 36.940874706759146Q247.47265625 36.647905956759146 247.2578125 36.393999706759146Q247.04296875 36.140093456759146 246.671875 35.935015331759146Q246.30078125 35.729937206759146 245.8125 35.612749706759146Q245.32421875 35.495562206759146 244.77734375 35.495562206759146Q243.9765625 35.495562206759146 243.13671875 35.729937206759146Q242.296875 35.964312206759146 241.61328125 36.345171581759146Q240.9296875 36.726030956759146 240.5 37.185015331759146Q240.0703125 37.643999706759146 240.0703125 38.093218456759146Q240.0703125 38.542437206759146 240.6171875 38.542437206759146Q240.94921875 38.542437206759146 241.69140625 38.464312206759146Q242.43359375 38.386187206759146 243.33203125 38.278765331759146Q244.23046875 38.171343456759146 245.1484375 38.034624706759146Q246.06640625 37.897905956759146 246.75 37.780718456759146ZM260.0703125 46.984211015056836Q259.50390625 46.984211015056836 259.005859375 46.808429765056836Q258.5078125 46.632648515056836 258.13671875 46.329914140056836Q257.765625 46.027179765056836 257.560546875 45.617023515056836Q257.35546875 45.206867265056836 257.35546875 44.738117265056836Q257.35546875 43.917804765056836 258.009765625 43.409992265056836Q258.6640625 42.902179765056836 259.73828125 42.902179765056836Q260.24609375 42.902179765056836 260.724609375 43.087726640056836Q261.203125 43.273273515056836 261.564453125 43.585773515056836Q261.92578125 43.898273515056836 262.140625 44.308429765056836Q262.35546875 44.718586015056836 262.35546875 45.167804765056836Q262.35546875 46.027179765056836 261.740234375 46.505695390056836Q261.125 46.984211015056836 260.0703125 46.984211015056836Z" fill="#111"/>
<path d="M152.1 58.7 C159.1 58.9 175.9 60.2 194.0 59.8 C212.2 59.4 249.7 56.9 260.8 56.3" fill="none" stroke="#111" stroke-width="2.6" stroke-linecap="round"/>
<path d="M32.5029296875 71.90329305171683Q32.19140625 71.90329305171683 31.91748046875 71.81198445796683Q31.6435546875 71.72067586421683 31.44482421875 71.55417195796683Q31.24609375 71.38766805171683 31.1279296875 71.16208211421683Q31.009765625 70.93649617671683 31.009765625 70.66794148921683Q31.009765625 70.21676961421683 31.36962890625 69.93747273921683Q31.7294921875 69.65817586421683 32.3310546875 69.65817586421683Q32.6103515625 69.65817586421683 32.8681640625 69.76022664546683Q33.1259765625 69.86227742671683 33.32470703125 70.03415242671683Q33.5234375 70.20602742671683 33.6416015625 70.43698445796683Q33.759765625 70.66794148921683 33.759765625 70.91501180171683Q33.759765625 71.37692586421683 33.42138671875 71.64010945796683Q33.0830078125 71.90329305171683 32.5029296875 71.90329305171683ZM31.03125 75.17966023921683Q31.03125 74.80368367671683 31.35888671875 74.56198445796683Q31.6865234375 74.32028523921683 32.2236328125 74.32028523921683Q33.1904296875 74.32028523921683 33.2548828125 74.98630086421683Q33.2978515625 75.44821492671683 33.34619140625 76.02829305171683Q33.39453125 76.60837117671683 33.44287109375 77.25827352046683Q33.4912109375 77.90817586421683 33.52880859375 78.60104695796683Q33.56640625 79.29391805171683 33.5986328125 79.96530477046683Q33.630859375 80.63669148921683 33.65234375 81.25973836421683Q33.673828125 81.88278523921683 33.673828125 82.39841023921683Q33.673828125 82.93551961421683 33.29248046875 83.20407430171683Q32.9111328125 83.47262898921683 32.1806640625 83.47262898921683Q31.84765625 83.47262898921683 31.65966796875 83.31686727046683Q31.4716796875 83.16110555171683 31.4716796875 82.86032430171683Q31.4716796875 81.37790242671683 31.40185546875 80.08346883296683Q31.33203125 78.78903523921683 31.25146484375 77.77926961421683Q31.1708984375 76.76950398921683 31.10107421875 76.09811727046683Q31.03125 75.42673055171683 31.03125 75.17966023921683ZM36.66015625 69.08783572469602Q36.66015625 68.51849978719602 36.982421875 68.28754275594602Q37.3046875 68.05658572469602 38.0458984375 68.05658572469602Q38.314453125 68.05658572469602 38.50244140625 68.10492556844602Q38.6904296875 68.15326541219602 38.82470703125 68.28217166219602Q38.958984375 68.41107791219602 39.03955078125 68.62055056844602Q39.1201171875 68.83002322469602 39.173828125 69.15228884969602Q39.302734375 70.15131228719602 39.45849609375 71.21478884969602Q39.6142578125 72.27826541219602 39.7861328125 73.35248416219602Q39.8505859375 73.83588259969602 40.291015625 73.83588259969602Q40.4091796875 73.83588259969602 40.68310546875 73.80902713094602Q40.95703125 73.78217166219602 41.3330078125 73.74457400594602Q41.708984375 73.70697634969602 42.14404296875 73.66400759969602Q42.5791015625 73.62103884969602 43.01416015625 73.58344119344602Q43.44921875 73.54584353719602 43.84130859375 73.51898806844602Q44.2333984375 73.49213259969602 44.5341796875 73.49213259969602Q44.7705078125 73.49213259969602 44.91015625 73.58344119344602Q45.0498046875 73.67474978719602 45.13037109375 73.81976931844602Q45.2109375 73.96478884969602 45.23779296875 74.14203494344602Q45.2646484375 74.31928103719602 45.2646484375 74.50189822469602Q45.2646484375 74.66303103719602 45.20556640625 74.83490603719602Q45.146484375 75.00678103719602 45.04443359375 75.14105838094602Q44.9423828125 75.27533572469602 44.7919921875 75.36127322469602Q44.6416015625 75.44721072469602 44.4482421875 75.44721072469602Q43.513671875 75.44721072469602 42.56298828125 75.50629275594602Q41.6123046875 75.56537478719602 40.6669921875 75.66205447469602Q40.18359375 75.72650759969602 40.18359375 76.14545291219602Q40.18359375 76.17767947469602 40.1943359375 76.22601931844602Q40.205078125 76.27435916219602 40.205078125 76.30658572469602Q40.333984375 77.24115603719602 40.44677734375 78.05756228719602Q40.5595703125 78.87396853719602 40.64013671875 79.51312869344602Q40.720703125 80.15228884969602 40.76904296875 80.57660525594602Q40.8173828125 81.00092166219602 40.8173828125 81.14057009969602Q40.8173828125 81.52728884969602 40.7421875 81.79047244344602Q40.6669921875 82.05365603719602 40.4951171875 82.22015994344602Q40.3232421875 82.38666384969602 40.03857421875 82.45648806844602Q39.75390625 82.52631228719602 39.32421875 82.52631228719602Q38.916015625 82.52631228719602 38.72265625 82.33295291219602Q38.529296875 82.13959353719602 38.5078125 81.74213259969602Q38.443359375 80.47455447469602 38.3037109375 79.19086306844602Q38.1640625 77.90717166219602 37.9814453125 76.62885134969602Q37.884765625 76.16693728719602 37.498046875 76.16693728719602Q37.4658203125 76.16693728719602 37.4228515625 76.17767947469602Q37.3798828125 76.18842166219602 37.34765625 76.18842166219602Q36.681640625 76.33881228719602 36.0908203125 76.48920291219602Q35.5 76.63959353719602 34.984375 76.81146853719602Q34.6943359375 76.90814822469602 34.46875 76.94574588094602Q34.2431640625 76.98334353719602 34.060546875 76.98334353719602Q33.8134765625 76.98334353719602 33.6953125 76.76312869344602Q33.5771484375 76.54291384969602 33.5771484375 76.20990603719602Q33.5771484375 76.09174197469602 33.5986328125 75.93598025594602Q33.6201171875 75.78021853719602 33.67919921875 75.62445681844602Q33.73828125 75.46869509969602 33.85107421875 75.33441775594602Q33.9638671875 75.20014041219602 34.1572265625 75.11420291219602Q34.6083984375 74.93158572469602 35.3603515625 74.73285525594602Q36.1123046875 74.53412478719602 37.0576171875 74.36224978719602Q37.2724609375 74.30853884969602 37.39599609375 74.18500369344602Q37.51953125 74.06146853719602 37.51953125 73.81439822469602Q37.51953125 73.76068728719602 37.51953125 73.70160525594602Q37.51953125 73.64252322469602 37.498046875 73.57807009969602Q37.326171875 72.58978884969602 37.17041015625 71.77875369344602Q37.0146484375 70.96771853719602 36.90185546875 70.38764041219602Q36.7890625 69.80756228719602 36.724609375 69.47455447469602Q36.66015625 69.14154666219602 36.66015625 69.08783572469602ZM49.9912109375 77.51629512138808Q49.9912109375 77.33367793388808 50.0341796875 77.10809199638808Q50.0771484375 76.88250605888808 50.0771484375 76.61395137138808Q50.0771484375 76.43133418388808 49.92138671875 76.33465449638808Q49.765625 76.23797480888808 49.572265625 76.11981074638808Q49.37890625 76.00164668388808 49.22314453125 75.81902949638808Q49.0673828125 75.63641230888808 49.0673828125 75.29266230888808Q49.0673828125 75.04559199638808 49.20166015625 74.79852168388808Q49.3359375 74.55145137138808 49.59375 74.34734980888808Q50.2275390625 73.87469355888808 50.90966796875 73.49871699638808Q51.591796875 73.12274043388808 52.27392578125 72.86492793388808Q52.9560546875 72.60711543388808 53.6220703125 72.46746699638808Q54.2880859375 72.32781855888808 54.900390625 72.32781855888808Q55.931640625 72.32781855888808 56.83935546875 72.70916621513808Q57.7470703125 73.09051387138808 58.41845703125 73.75115840263808Q59.08984375 74.41180293388808 59.48193359375 75.29803340263808Q59.8740234375 76.18426387138808 59.8740234375 77.19402949638808Q59.8740234375 78.18231074638808 59.46044921875 79.06854121513808Q59.046875 79.95477168388808 58.3486328125 80.62078730888808Q57.650390625 81.28680293388808 56.71044921875 81.67889277763808Q55.7705078125 82.07098262138808 54.728515625 82.07098262138808Q53.7080078125 82.07098262138808 52.837890625 81.72723262138808Q51.9677734375 81.38348262138808 51.333984375 80.77654902763808Q50.7001953125 80.16961543388808 50.345703125 79.33709590263808Q49.9912109375 78.50457637138808 49.9912109375 77.51629512138808ZM54.96484375 80.13738887138808Q55.416015625 80.13738887138808 55.8994140625 79.95477168388808Q56.3828125 79.77215449638808 56.78564453125 79.42303340263808Q57.1884765625 79.07391230888808 57.45166015625 78.56902949638808Q57.71484375 78.06414668388808 57.71484375 77.43035762138808Q57.71484375 76.78582637138808 57.478515625 76.22723262138808Q57.2421875 75.66863887138808 56.82861328125 75.25506465263808Q56.4150390625 74.84149043388808 55.85107421875 74.60516230888808Q55.287109375 74.36883418388808 54.6318359375 74.36883418388808Q53.439453125 74.36883418388808 52.8056640625 74.98650996513808Q52.171875 75.60418574638808 52.171875 76.88250605888808Q52.171875 77.58074824638808 52.38134765625 78.17693965263808Q52.5908203125 78.77313105888808 52.966796875 79.20818965263808Q53.3427734375 79.64324824638808 53.85302734375 79.89031855888808Q54.36328125 80.13738887138808 54.96484375 80.13738887138808ZM61.453125 72.87141106534465Q61.453125 72.71027825284465 61.5927734375 72.55451653409465Q61.732421875 72.39875481534465 61.9580078125 72.27521965909465Q62.18359375 72.15168450284465 62.46826171875 72.07111809659465Q62.7529296875 71.99055169034465 63.04296875 71.99055169034465Q63.2041015625 71.99055169034465 63.31689453125 72.07648919034465Q63.4296875 72.16242669034465 63.515625 72.40412590909465Q63.6015625 72.64582512784465 63.67138671875 73.08088372159465Q63.7412109375 73.51594231534465 63.8056640625 74.21418450284465Q63.8486328125 74.42902825284465 63.88623046875 74.54182122159465Q63.923828125 74.65461419034465 63.98828125 74.65461419034465Q64.0849609375 74.65461419034465 64.181640625 74.32160637784465Q64.9658203125 72.05500481534465 66.4482421875 72.05500481534465Q67.1357421875 72.05500481534465 67.69970703125 72.48469231534465Q68.263671875 72.91437981534465 68.75244140625 73.88654778409465Q69.2412109375 74.85871575284465 69.681640625 76.44318840909465Q70.1220703125 78.02766106534465 70.5625 80.34797356534465Q70.583984375 80.46613762784465 70.5947265625 80.56281731534465Q70.60546875 80.65949700284465 70.60546875 80.74543450284465Q70.60546875 80.99250481534465 70.49267578125 81.16975090909465Q70.3798828125 81.34699700284465 70.197265625 81.45978997159465Q70.0146484375 81.57258294034465 69.7890625 81.63166497159465Q69.5634765625 81.69074700284465 69.337890625 81.69074700284465Q68.88671875 81.69074700284465 68.68798828125 81.59406731534465Q68.4892578125 81.49738762784465 68.435546875 81.22883294034465Q68.1240234375 79.59602044034465 67.82861328125 78.32844231534465Q67.533203125 77.06086419034465 67.24853515625 76.19611809659465Q66.9638671875 75.33137200284465 66.6845703125 74.88020012784465Q66.4052734375 74.42902825284465 66.1259765625 74.42902825284465Q65.8466796875 74.42902825284465 65.60498046875 74.77814934659465Q65.36328125 75.12727044034465 65.1376953125 75.86848137784465Q64.912109375 76.60969231534465 64.70263671875 77.74836419034465Q64.4931640625 78.88703606534465 64.2998046875 80.46613762784465Q64.24609375 80.89582512784465 63.8701171875 81.15363762784465Q63.494140625 81.41145012784465 62.9140625 81.41145012784465Q62.52734375 81.41145012784465 62.3232421875 81.25031731534465Q62.119140625 81.08918450284465 62.09765625 80.80988762784465Q62.0009765625 78.57551262784465 61.88818359375 77.13068840909465Q61.775390625 75.68586419034465 61.6787109375 74.81037590909465Q61.58203125 73.93488762784465 61.517578125 73.50520012784465Q61.453125 73.07551262784465 61.453125 72.87141106534465ZM71.142578125 70.52335169938807Q71.142578125 69.96475794938807 71.46484375 69.72842982438807Q71.787109375 69.49210169938807 72.5283203125 69.49210169938807Q72.7861328125 69.49210169938807 72.9794921875 69.54581263688807Q73.1728515625 69.59952357438807 73.3017578125 69.72305873063807Q73.4306640625 69.84659388688807 73.51123046875 70.05606654313807Q73.591796875 70.26553919938807 73.6455078125 70.58780482438807Q73.78515625 71.54385951188807 73.93017578125 72.59122279313807Q74.0751953125 73.63858607438807 74.20947265625 74.67520716813807Q74.34375 75.71182826188807 74.4619140625 76.69473841813807Q74.580078125 77.67764857438807 74.67138671875 78.52091029313807Q74.7626953125 79.36417201188807 74.81103515625 80.01407435563807Q74.859375 80.66397669938807 74.859375 81.03995326188807Q74.859375 81.42667201188807 74.78955078125 81.69522669938807Q74.7197265625 81.96378138688807 74.55322265625 82.12491419938807Q74.38671875 82.28604701188807 74.12353515625 82.35587123063807Q73.8603515625 82.42569544938807 73.4736328125 82.42569544938807Q73.09765625 82.42569544938807 72.87744140625 82.23233607438807Q72.6572265625 82.03897669938807 72.6572265625 81.64151576188807Q72.6572265625 81.23331263688807 72.5927734375 80.55118373063807Q72.5283203125 79.86905482438807 72.4208984375 79.03116419938807Q72.3134765625 78.19327357438807 72.17919921875 77.24796107438807Q72.044921875 76.30264857438807 71.89990234375 75.37882044938807Q71.7548828125 74.45499232438807 71.62060546875 73.60098841813807Q71.486328125 72.74698451188807 71.37890625 72.08633998063807Q71.271484375 71.42569544938807 71.20703125 71.00137904313807Q71.142578125 70.57706263688807 71.142578125 70.52335169938807ZM81.046875 81.52378237431745Q80.40234375 81.52378237431745 79.7578125 81.20688784306745Q79.11328125 80.88999331181745 78.5224609375 80.34214174931745Q77.931640625 79.79429018681745 77.4267578125 79.04770815556745Q76.921875 78.30112612431745 76.5458984375 77.43638003056745Q76.169921875 76.57163393681745 75.955078125 75.62632143681745Q75.740234375 74.68100893681745 75.740234375 73.73569643681745Q75.740234375 73.00522768681745 76.041015625 72.68833315556745Q76.341796875 72.37143862431745 77.0185546875 72.37143862431745Q77.8671875 72.37143862431745 77.9638671875 73.06968081181745Q78.1572265625 74.55210268681745 78.5009765625 75.74448549931745Q78.8447265625 76.93686831181745 79.31201171875 77.77475893681745Q79.779296875 78.61264956181745 80.35400390625 79.06382143681745Q80.9287109375 79.51499331181745 81.5732421875 79.51499331181745Q82.03515625 79.51499331181745 82.443359375 79.28403628056745Q82.8515625 79.05307924931745 83.15234375 78.63413393681745Q83.259765625 78.47300112431745 83.29736328125 78.32261049931745Q83.3349609375 78.17221987431745 83.3564453125 77.97886049931745Q83.41015625 77.21616518681745 83.47998046875 76.48032534306745Q83.5498046875 75.74448549931745 83.6142578125 75.00327456181745Q83.6357421875 74.68100893681745 83.7001953125 74.47690737431745Q83.7646484375 74.27280581181745 83.8935546875 74.15464174931745Q84.0224609375 74.03647768681745 84.23193359375 73.99350893681745Q84.44140625 73.95054018681745 84.763671875 73.95054018681745Q85.12890625 73.95054018681745 85.38671875 74.05259096806745Q85.64453125 74.15464174931745 85.8056640625 74.38559878056745Q85.966796875 74.61655581181745 86.03662109375 74.98716128056745Q86.1064453125 75.35776674931745 86.1064453125 75.90561831181745Q86.1064453125 76.37827456181745 86.03662109375 76.72739565556745Q85.966796875 77.07651674931745 85.87548828125 77.38266909306745Q85.7841796875 77.68882143681745 85.70361328125 77.98423159306745Q85.623046875 78.27964174931745 85.6015625 78.63413393681745Q85.5478515625 79.52573549931745 85.5048828125 80.17563784306745Q85.4619140625 80.82554018681745 85.43505859375 81.28745424931745Q85.408203125 81.74936831181745 85.39208984375 82.08237612431745Q85.3759765625 82.41538393681745 85.365234375 82.67856753056745Q85.3544921875 82.94175112431745 85.3544921875 83.17807924931745Q85.3544921875 83.41440737431745 85.3544921875 83.69370424931745Q85.3544921875 84.19858706181745 85.3974609375 84.79477846806745Q85.4404296875 85.39096987431745 85.48876953125 85.93882143681745Q85.537109375 86.48667299931745 85.580078125 86.90561831181745Q85.623046875 87.32456362431745 85.623046875 87.48569643681745Q85.623046875 87.68979799931745 85.494140625 87.87241518681745Q85.365234375 88.05503237431745 85.150390625 88.19468081181745Q84.935546875 88.33432924931745 84.6455078125 88.41489565556745Q84.35546875 88.49546206181745 84.033203125 88.49546206181745Q83.75390625 88.49546206181745 83.58740234375 88.30747378056745Q83.4208984375 88.11948549931745 83.3994140625 87.80796206181745Q83.3671875 87.39975893681745 83.345703125 86.81430971806745Q83.32421875 86.22886049931745 83.302734375 85.56821596806745Q83.28125 84.90757143681745 83.27587890625 84.22544253056745Q83.2705078125 83.54331362431745 83.259765625 82.95786440556745Q83.2490234375 82.37241518681745 83.2490234375 81.93198549931745Q83.2490234375 81.49155581181745 83.2490234375 81.29819643681745Q83.2490234375 81.10483706181745 83.2060546875 81.02427065556745Q83.1630859375 80.94370424931745 83.044921875 80.94370424931745Q82.98046875 80.94370424931745 82.873046875 80.98130190556745Q82.765625 81.01889956181745 82.6259765625 81.10483706181745Q82.25 81.33042299931745 81.86328125 81.42710268681745Q81.4765625 81.52378237431745 81.046875 81.52378237431745ZM99.4375 77.73573607542284Q99.4375 76.03847045042284 99.845703125 75.12538451292284Q100.25390625 74.21229857542284 101.0166015625 74.21229857542284Q102.23046875 74.21229857542284 102.23046875 76.30702513792284Q102.23046875 77.04823607542284 102.14990234375 77.70350951292284Q102.0693359375 78.35878295042284 101.9189453125 78.97108763792284Q101.8974609375 79.05702513792284 101.88671875 79.13222045042284Q101.8759765625 79.20741576292284 101.8759765625 79.27186888792284Q101.8759765625 79.49745482542284 101.9619140625 79.66932982542284Q102.4990234375 81.03358763792284 103.94921875 81.03358763792284Q104.46484375 81.03358763792284 104.916015625 80.80800170042284Q105.3671875 80.58241576292284 105.7001953125 80.19032591917284Q106.033203125 79.79823607542284 106.22119140625 79.27186888792284Q106.4091796875 78.74550170042284 106.4091796875 78.13319701292284Q106.4091796875 77.44569701292284 106.248046875 76.98915404417284Q106.0869140625 76.53261107542284 105.8935546875 76.20497435667284Q105.7001953125 75.87733763792284 105.5390625 75.60341185667284Q105.3779296875 75.32948607542284 105.3779296875 74.98573607542284Q105.3779296875 74.82460326292284 105.52294921875 74.64735716917284Q105.66796875 74.47011107542284 105.88818359375 74.31972045042284Q106.1083984375 74.16932982542284 106.37158203125 74.07265013792284Q106.634765625 73.97597045042284 106.87109375 73.97597045042284Q107.1826171875 73.97597045042284 107.48876953125 74.31972045042284Q107.794921875 74.66347045042284 108.03662109375 75.21669310667284Q108.2783203125 75.76991576292284 108.42333984375 76.47890013792284Q108.568359375 77.18788451292284 108.568359375 77.90761107542284Q108.568359375 78.94960326292284 108.181640625 79.87343138792284Q107.794921875 80.79725951292284 107.12890625 81.49550170042284Q106.462890625 82.19374388792284 105.57666015625 82.60194701292284Q104.6904296875 83.01015013792284 103.7021484375 83.01015013792284Q102.8642578125 83.01015013792284 102.21435546875 82.71473998167284Q101.564453125 82.41932982542284 101.0166015625 81.67811888792284Q100.9306640625 81.53847045042284 100.8447265625 81.48475951292284Q100.7587890625 81.43104857542284 100.6728515625 81.43104857542284Q100.5654296875 81.43104857542284 100.4794921875 81.48475951292284Q100.3935546875 81.53847045042284 100.296875 81.67811888792284Q99.56640625 82.63417357542284 98.73388671875 83.04237670042284Q97.9013671875 83.45057982542284 96.90234375 83.45057982542284Q95.7958984375 83.45057982542284 94.90966796875 82.84364623167284Q94.0234375 82.23671263792284 93.400390625 81.11952513792284Q92.77734375 80.00233763792284 92.4443359375 78.40712279417284Q92.111328125 76.81190795042284 92.111328125 74.83534545042284Q92.111328125 74.02968138792284 92.17578125 73.49794310667284Q92.240234375 72.96620482542284 92.412109375 72.66005248167284Q92.583984375 72.35390013792284 92.86328125 72.23036498167284Q93.142578125 72.10682982542284 93.5830078125 72.10682982542284Q94.044921875 72.10682982542284 94.25439453125 72.28407591917284Q94.4638671875 72.46132201292284 94.4638671875 72.89100951292284Q94.4638671875 73.22401732542284 94.3994140625 73.63759154417284Q94.3349609375 74.05116576292284 94.3349609375 74.35194701292284Q94.3349609375 75.90956420042284 94.55517578125 77.22011107542284Q94.775390625 78.53065795042284 95.16748046875 79.47597045042284Q95.5595703125 80.42128295042284 96.10205078125 80.94765013792284Q96.64453125 81.47401732542284 97.2998046875 81.47401732542284Q98.7607421875 81.47401732542284 99.458984375 79.98085326292284Q99.5234375 79.86268920042284 99.544921875 79.76063841917284Q99.56640625 79.65858763792284 99.56640625 79.54042357542284Q99.56640625 79.47597045042284 99.56640625 79.40614623167284Q99.56640625 79.33632201292284 99.544921875 79.25038451292284Q99.4912109375 78.84218138792284 99.46435546875 78.47157591917284Q99.4375 78.10097045042284 99.4375 77.73573607542284ZM109.79296875 78.12734785254176Q109.79296875 77.94473066504176 109.8359375 77.71914472754176Q109.87890625 77.49355879004176 109.87890625 77.22500410254176Q109.87890625 77.04238691504176 109.72314453125 76.94570722754176Q109.5673828125 76.84902754004176 109.3740234375 76.73086347754176Q109.1806640625 76.61269941504176 109.02490234375 76.43008222754176Q108.869140625 76.24746504004176 108.869140625 75.90371504004176Q108.869140625 75.65664472754176 109.00341796875 75.40957441504176Q109.1376953125 75.16250410254176 109.3955078125 74.95840254004176Q110.029296875 74.48574629004176 110.71142578125 74.10976972754176Q111.3935546875 73.73379316504176 112.07568359375 73.47598066504176Q112.7578125 73.21816816504176 113.423828125 73.07851972754176Q114.08984375 72.93887129004176 114.7021484375 72.93887129004176Q115.7333984375 72.93887129004176 116.64111328125 73.32021894629176Q117.548828125 73.70156660254176 118.22021484375 74.36221113379176Q118.8916015625 75.02285566504176 119.28369140625 75.90908613379176Q119.67578125 76.79531660254176 119.67578125 77.80508222754176Q119.67578125 78.79336347754176 119.26220703125 79.67959394629176Q118.8486328125 80.56582441504176 118.150390625 81.23184004004176Q117.4521484375 81.89785566504176 116.51220703125 82.28994550879176Q115.572265625 82.68203535254176 114.5302734375 82.68203535254176Q113.509765625 82.68203535254176 112.6396484375 82.33828535254176Q111.76953125 81.99453535254176 111.1357421875 81.38760175879176Q110.501953125 80.78066816504176 110.1474609375 79.94814863379176Q109.79296875 79.11562910254176 109.79296875 78.12734785254176ZM114.7666015625 80.74844160254176Q115.2177734375 80.74844160254176 115.701171875 80.56582441504176Q116.1845703125 80.38320722754176 116.58740234375 80.03408613379176Q116.990234375 79.68496504004176 117.25341796875 79.18008222754176Q117.5166015625 78.67519941504176 117.5166015625 78.04141035254176Q117.5166015625 77.39687910254176 117.2802734375 76.83828535254176Q117.0439453125 76.27969160254176 116.63037109375 75.86611738379176Q116.216796875 75.45254316504176 115.65283203125 75.21621504004176Q115.0888671875 74.97988691504176 114.43359375 74.97988691504176Q113.2412109375 74.97988691504176 112.607421875 75.59756269629176Q111.9736328125 76.21523847754176 111.9736328125 77.49355879004176Q111.9736328125 78.19180097754176 112.18310546875 78.78799238379176Q112.392578125 79.38418379004176 112.7685546875 79.81924238379176Q113.14453125 80.25430097754176 113.65478515625 80.50137129004176Q114.1650390625 80.74844160254176 114.7666015625 80.74844160254176ZM126.89453125 74.07943046770293Q126.4970703125 74.07943046770293 126.1962890625 74.28890312395293Q125.8955078125 74.49837578020293 125.6806640625 74.86898124895293Q125.4658203125 75.23958671770293 125.326171875 75.73909843645293Q125.1865234375 76.23861015520293 125.1005859375 76.82943046770293Q125.0146484375 77.42025078020293 124.982421875 78.06478203020293Q124.9501953125 78.70931328020293 124.9501953125 79.36458671770293Q124.9501953125 80.22396171770293 125.02001953125 81.05648124895293Q125.08984375 81.88900078020293 125.08984375 82.59798515520293Q125.08984375 83.05989921770293 124.74609375 83.32308281145293Q124.40234375 83.58626640520293 123.7685546875 83.58626640520293Q123.650390625 83.58626640520293 123.5 83.56478203020293Q123.349609375 83.54329765520293 123.21533203125 83.47884453020293Q123.0810546875 83.41439140520293 122.97900390625 83.30159843645293Q122.876953125 83.18880546770293 122.8662109375 82.99544609270293Q122.76953125 82.05013359270293 122.5869140625 81.06185234270293Q122.404296875 80.07357109270293 122.13037109375 79.09066093645293Q121.8564453125 78.10775078020293 121.47509765625 77.14095390520293Q121.09375 76.17415703020293 120.599609375 75.25032890520293Q120.513671875 75.08919609270293 120.45458984375 74.94954765520293Q120.3955078125 74.80989921770293 120.3955078125 74.68099296770293Q120.3955078125 74.51986015520293 120.54052734375 74.33187187395293Q120.685546875 74.14388359270293 120.90576171875 73.98275078020293Q121.1259765625 73.82161796770293 121.38916015625 73.71956718645293Q121.65234375 73.61751640520293 121.8994140625 73.61751640520293Q122.3076171875 73.61751640520293 122.619140625 74.18148124895293Q122.9306640625 74.74544609270293 123.19921875 75.98079765520293Q123.2529296875 76.19564140520293 123.28515625 76.28157890520293Q123.3173828125 76.36751640520293 123.37109375 76.36751640520293Q123.4892578125 76.36751640520293 123.521484375 76.00228203020293Q123.650390625 74.98177421770293 123.9619140625 74.24593437395293Q124.2734375 73.51009453020293 124.74072265625 73.03206718645293Q125.2080078125 72.55403984270293 125.81494140625 72.32845390520293Q126.421875 72.10286796770293 127.15234375 72.10286796770293Q127.5712890625 72.10286796770293 128.0009765625 72.17806328020293Q128.4306640625 72.25325859270293 128.7744140625 72.40364921770293Q129.1181640625 72.55403984270293 129.3330078125 72.76888359270293Q129.5478515625 72.98372734270293 129.5478515625 73.25228203020293Q129.5478515625 73.44564140520293 129.46728515625 73.70882499895293Q129.38671875 73.97200859270293 129.2578125 74.21370781145293Q129.12890625 74.45540703020293 128.96240234375 74.62191093645293Q128.7958984375 74.78841484270293 128.6240234375 74.78841484270293Q128.4306640625 74.78841484270293 128.248046875 74.67562187395293Q128.0654296875 74.56282890520293 127.85595703125 74.43392265520293Q127.646484375 74.30501640520293 127.41552734375 74.19222343645293Q127.1845703125 74.07943046770293 126.89453125 74.07943046770293ZM129.5048828125 80.73584978993597Q129.5048828125 79.80127947743597 129.451171875 78.70557635243597Q129.3974609375 77.60987322743597 129.31689453125 76.48731463368597Q129.236328125 75.36475603993597 129.14501953125 74.29053728993597Q129.0537109375 73.21631853993597 128.97314453125 72.32471697743597Q128.892578125 71.43311541493597 128.8388671875 70.78858416493597Q128.78515625 70.14405291493597 128.78515625 69.88624041493597Q128.78515625 69.45655291493597 129.107421875 69.23096697743597Q129.4296875 69.00538103993597 130.0419921875 69.00538103993597Q130.310546875 69.00538103993597 130.49853515625 69.05909197743597Q130.6865234375 69.11280291493597 130.8046875 69.24170916493597Q130.9228515625 69.37061541493597 130.99267578125 69.58008807118597Q131.0625 69.78956072743597 131.0947265625 70.10108416493597Q131.1376953125 70.53077166493597 131.169921875 71.01954119618597Q131.2021484375 71.50831072743597 131.23974609375 72.13135760243597Q131.27734375 72.75440447743597 131.3203125 73.53858416493597Q131.36328125 74.32276385243597 131.427734375 75.34327166493597Q131.427734375 75.49366228993597 131.4814453125 75.55811541493597Q131.53515625 75.62256853993597 131.599609375 75.62256853993597Q131.7177734375 75.62256853993597 131.814453125 75.42920916493597Q132.7275390625 73.57081072743597 133.7265625 72.58790057118597Q134.7255859375 71.60499041493597 135.6708984375 71.60499041493597Q136.2294921875 71.60499041493597 136.5517578125 71.93799822743597Q136.8740234375 72.27100603993597 136.8740234375 72.82959978993597Q136.8740234375 73.43116228993597 136.61083984375 73.94141619618597Q136.34765625 74.45167010243597 135.95556640625 74.90284197743597Q135.5634765625 75.35401385243597 135.10693359375 75.75147478993597Q134.650390625 76.14893572743597 134.25830078125 76.52491228993597Q133.8662109375 76.90088885243597 133.60302734375 77.26075213368597Q133.33984375 77.62061541493597 133.33984375 77.98584978993597Q133.33984375 78.31885760243597 133.73193359375 78.66797869618597Q134.1240234375 79.01709978993597 134.865234375 79.35547869618597Q135.6064453125 79.69385760243597 136.6806640625 80.01075213368597Q137.7548828125 80.32764666493597 139.119140625 80.61768572743597Q139.333984375 80.67139666493597 139.42529296875 80.78956072743597Q139.5166015625 80.90772478993597 139.5166015625 81.10108416493597Q139.5166015625 81.33741228993597 139.4091796875 81.58985369618597Q139.3017578125 81.84229510243597 139.140625 82.05176775868597Q138.9794921875 82.26124041493597 138.78076171875 82.39551775868597Q138.58203125 82.52979510243597 138.3994140625 82.52979510243597Q138.0341796875 82.52979510243597 137.529296875 82.43311541493597Q137.0244140625 82.33643572743597 136.43896484375 82.16993182118597Q135.853515625 82.00342791493597 135.23046875 81.78321307118597Q134.607421875 81.56299822743597 134.02197265625 81.31055682118597Q133.4365234375 81.05811541493597 132.91552734375 80.78418963368597Q132.39453125 80.51026385243597 132.0185546875 80.24170916493597Q131.900390625 80.17725603993597 131.83056640625 80.13428728993597Q131.7607421875 80.09131853993597 131.70703125 80.09131853993597Q131.642578125 80.09131853993597 131.6318359375 80.13965838368597Q131.62109375 80.18799822743597 131.62109375 80.33838885243597Q131.62109375 80.71436541493597 131.56201171875 80.95069353993597Q131.5029296875 81.18702166493597 131.36328125 81.32129900868597Q131.2236328125 81.45557635243597 130.9765625 81.50928728993597Q130.7294921875 81.56299822743597 130.3642578125 81.56299822743597Q129.880859375 81.56299822743597 129.69287109375 81.38038103993597Q129.5048828125 81.19776385243597 129.5048828125 80.73584978993597ZM141.3427734375 71.61882405791896Q142.0625 71.61882405791896 142.8251953125 71.80681233916896Q143.587890625 71.99480062041896 144.2216796875 72.29021077666896Q144.85546875 72.58562093291896 145.263671875 72.95085530791896Q145.671875 73.31608968291896 145.671875 73.65983968291896Q145.671875 73.83171468291896 145.521484375 74.04118733916896Q145.37109375 74.25065999541896 145.15625 74.43864827666896Q144.94140625 74.62663655791896 144.68896484375 74.75017171416896Q144.4365234375 74.87370687041896 144.2431640625 74.87370687041896Q143.9853515625 74.87370687041896 143.66845703125 74.65886312041896Q143.3515625 74.44401937041896 142.97021484375 74.18083577666896Q142.5888671875 73.91765218291896 142.1376953125 73.70280843291896Q141.6865234375 73.48796468291896 141.16015625 73.48796468291896Q140.81640625 73.48796468291896 140.59619140625 73.65446858916896Q140.3759765625 73.82097249541896 140.3759765625 74.12175374541896Q140.3759765625 74.39030843291896 140.6337890625 74.66423421416896Q140.8916015625 74.93815999541896 141.31591796875 75.22819905791896Q141.740234375 75.51823812041896 142.27734375 75.84050374541896Q142.814453125 76.16276937041896 143.37841796875 76.52800374541896Q143.9423828125 76.89323812041896 144.4794921875 77.32292562041896Q145.0166015625 77.75261312041896 145.44091796875 78.25749593291896Q145.865234375 78.76237874541896 146.123046875 79.35857015166896Q146.380859375 79.95476155791896 146.380859375 80.65300374541896Q146.380859375 81.25456624541896 146.166015625 81.74870687041896Q145.951171875 82.24284749541896 145.5537109375 82.59733968291896Q145.15625 82.95183187041896 144.6083984375 83.14519124541896Q144.060546875 83.33855062041896 143.4052734375 83.33855062041896Q142.578125 83.33855062041896 141.8798828125 83.08610921416896Q141.181640625 82.83366780791896 140.6767578125 82.39323812041896Q140.171875 81.95280843291896 139.88720703125 81.34050374541896Q139.6025390625 80.72819905791896 139.6025390625 79.99773030791896Q139.6025390625 79.05241780791896 139.94091796875 78.62273030791896Q140.279296875 78.19304280791896 141.009765625 78.19304280791896Q141.4609375 78.19304280791896 141.7294921875 78.36491780791896Q141.998046875 78.53679280791896 141.998046875 78.78386312041896Q141.998046875 78.91276937041896 141.955078125 79.04704671416896Q141.912109375 79.18132405791896 141.86376953125 79.32634358916896Q141.8154296875 79.47136312041896 141.77783203125 79.63249593291896Q141.740234375 79.79362874541896 141.740234375 79.95476155791896Q141.740234375 80.23405843291896 141.869140625 80.49187093291896Q141.998046875 80.74968343291896 142.21826171875 80.94841390166896Q142.4384765625 81.14714437041896 142.728515625 81.26530843291896Q143.0185546875 81.38347249541896 143.3408203125 81.38347249541896Q144.2001953125 81.38347249541896 144.2001953125 80.67448812041896Q144.2001953125 80.11589437041896 143.759765625 79.61638265166896Q143.3193359375 79.11687093291896 142.6533203125 78.63884358916896Q141.9873046875 78.16081624541896 141.21923828125 77.67741780791896Q140.451171875 77.19401937041896 139.78515625 76.66765218291896Q139.119140625 76.14128499541896 138.6787109375 75.54509358916896Q138.23828125 74.94890218291896 138.23828125 74.25065999541896Q138.23828125 73.67058187041896 138.47998046875 73.18718343291896Q138.7216796875 72.70378499541896 139.140625 72.35466390166896Q139.5595703125 72.00554280791896 140.12353515625 71.81218343291896Q140.6875 71.61882405791896 141.3427734375 71.61882405791896ZM153.5888671875 71.47592868563629Q153.27734375 71.47592868563629 153.00341796875 71.38462009188629Q152.7294921875 71.29331149813629 152.53076171875 71.12680759188629Q152.33203125 70.96030368563629 152.2138671875 70.73471774813629Q152.095703125 70.50913181063629 152.095703125 70.24057712313629Q152.095703125 69.78940524813629 152.45556640625 69.51010837313629Q152.8154296875 69.23081149813629 153.4169921875 69.23081149813629Q153.6962890625 69.23081149813629 153.9541015625 69.33286227938629Q154.2119140625 69.43491306063629 154.41064453125 69.60678806063629Q154.609375 69.77866306063629 154.7275390625 70.00962009188629Q154.845703125 70.24057712313629 154.845703125 70.48764743563629Q154.845703125 70.94956149813629 154.50732421875 71.21274509188629Q154.1689453125 71.47592868563629 153.5888671875 71.47592868563629ZM152.1171875 74.75229587313629Q152.1171875 74.37631931063629 152.44482421875 74.13462009188629Q152.7724609375 73.89292087313629 153.3095703125 73.89292087313629Q154.2763671875 73.89292087313629 154.3408203125 74.55893649813629Q154.3837890625 75.02085056063629 154.43212890625 75.60092868563629Q154.48046875 76.18100681063629 154.52880859375 76.83090915438629Q154.5771484375 77.48081149813629 154.61474609375 78.17368259188629Q154.65234375 78.86655368563629 154.6845703125 79.53794040438629Q154.716796875 80.20932712313629 154.73828125 80.83237399813629Q154.759765625 81.45542087313629 154.759765625 81.97104587313629Q154.759765625 82.50815524813629 154.37841796875 82.77670993563629Q153.9970703125 83.04526462313629 153.2666015625 83.04526462313629Q152.93359375 83.04526462313629 152.74560546875 82.88950290438629Q152.5576171875 82.73374118563629 152.5576171875 82.43295993563629Q152.5576171875 80.95053806063629 152.48779296875 79.65610446688629Q152.41796875 78.36167087313629 152.33740234375 77.35190524813629Q152.2568359375 76.34213962313629 152.18701171875 75.67075290438629Q152.1171875 74.99936618563629 152.1171875 74.75229587313629ZM156.9296875 73.15727622110657Q156.9296875 72.99614340860657 157.0693359375 72.84038168985657Q157.208984375 72.68461997110657 157.4345703125 72.56108481485657Q157.66015625 72.43754965860657 157.94482421875 72.35698325235657Q158.2294921875 72.27641684610657 158.51953125 72.27641684610657Q158.6806640625 72.27641684610657 158.79345703125 72.36235434610657Q158.90625 72.44829184610657 158.9921875 72.68999106485657Q159.078125 72.93169028360657 159.14794921875 73.36674887735657Q159.2177734375 73.80180747110657 159.2822265625 74.50004965860657Q159.3251953125 74.71489340860657 159.36279296875 74.82768637735657Q159.400390625 74.94047934610657 159.46484375 74.94047934610657Q159.5615234375 74.94047934610657 159.658203125 74.60747153360657Q160.4423828125 72.34086997110657 161.9248046875 72.34086997110657Q162.6123046875 72.34086997110657 163.17626953125 72.77055747110657Q163.740234375 73.20024497110657 164.22900390625 74.17241293985657Q164.7177734375 75.14458090860657 165.158203125 76.72905356485657Q165.5986328125 78.31352622110657 166.0390625 80.63383872110657Q166.060546875 80.75200278360657 166.0712890625 80.84868247110657Q166.08203125 80.94536215860657 166.08203125 81.03129965860657Q166.08203125 81.27836997110657 165.96923828125 81.45561606485657Q165.8564453125 81.63286215860657 165.673828125 81.74565512735657Q165.4912109375 81.85844809610657 165.265625 81.91753012735657Q165.0400390625 81.97661215860657 164.814453125 81.97661215860657Q164.36328125 81.97661215860657 164.16455078125 81.87993247110657Q163.9658203125 81.78325278360657 163.912109375 81.51469809610657Q163.6005859375 79.88188559610657 163.30517578125 78.61430747110657Q163.009765625 77.34672934610657 162.72509765625 76.48198325235657Q162.4404296875 75.61723715860657 162.1611328125 75.16606528360657Q161.8818359375 74.71489340860657 161.6025390625 74.71489340860657Q161.3232421875 74.71489340860657 161.08154296875 75.06401450235657Q160.83984375 75.41313559610657 160.6142578125 76.15434653360657Q160.388671875 76.89555747110657 160.17919921875 78.03422934610657Q159.9697265625 79.17290122110657 159.7763671875 80.75200278360657Q159.72265625 81.18169028360657 159.3466796875 81.43950278360657Q158.970703125 81.69731528360657 158.390625 81.69731528360657Q158.00390625 81.69731528360657 157.7998046875 81.53618247110657Q157.595703125 81.37504965860657 157.57421875 81.09575278360657Q157.4775390625 78.86137778360657 157.36474609375 77.41655356485657Q157.251953125 75.97172934610657 157.1552734375 75.09624106485657Q157.05859375 74.22075278360657 156.994140625 73.79106528360657Q156.9296875 73.36137778360657 156.9296875 73.15727622110657ZM176.8671875 71.09792659741834Q177.0927734375 70.95827815991834 177.3291015625 70.90456722241834Q177.5654296875 70.85085628491834 177.76953125 70.85085628491834Q178.0380859375 70.85085628491834 178.2529296875 70.94216487866834Q178.4677734375 71.03347347241834 178.6181640625 71.17312190991834Q178.7685546875 71.31277034741834 178.84912109375 71.49001644116834Q178.9296875 71.66726253491834 178.9296875 71.83913753491834Q178.9296875 72.07546565991834 178.77392578125 72.29030940991834Q178.6181640625 72.50515315991834 178.3388671875 72.65554378491834Q177.7802734375 72.97780940991834 177.404296875 73.20339534741834Q177.0283203125 73.42898128491834 176.76513671875 73.61159847241834Q176.501953125 73.79421565991834 176.30859375 73.95534847241834Q176.115234375 74.11648128491834 175.921875 74.30984065991834Q175.642578125 74.56765315991834 175.384765625 74.90066097241834Q175.126953125 75.23366878491834 174.92822265625 75.56130550366834Q174.7294921875 75.88894222241834 174.60595703125 76.18972347241834Q174.482421875 76.49050472241834 174.482421875 76.68386409741834Q174.482421875 76.84499690991834 174.568359375 76.94167659741834Q174.654296875 77.03835628491834 174.8154296875 77.03835628491834Q174.9873046875 77.03835628491834 175.19140625 76.92019222241834Q175.8466796875 76.55495784741834 176.57177734375 76.26491878491834Q177.296875 75.97487972241834 178.0380859375 75.77077815991834Q178.779296875 75.56667659741834 179.5205078125 75.46462581616834Q180.26171875 75.36257503491834 180.9599609375 75.36257503491834Q182.06640625 75.36257503491834 182.990234375 75.60427425366834Q183.9140625 75.84597347241834 184.580078125 76.27566097241834Q185.24609375 76.70534847241834 185.611328125 77.31228206616834Q185.9765625 77.91921565991834 185.9765625 78.63894222241834Q185.9765625 79.44460628491834 185.5146484375 80.18581722241834Q185.052734375 80.92702815991834 184.2470703125 81.48562190991834Q183.44140625 82.04421565991834 182.345703125 82.37722347241834Q181.25 82.71023128491834 179.982421875 82.71023128491834Q178.2958984375 82.71023128491834 176.89404296875 82.36111019116834Q175.4921875 82.01198909741834 174.48779296875 81.38894222241834Q173.4833984375 80.76589534741834 172.93017578125 79.90114925366834Q172.376953125 79.03640315991834 172.376953125 78.00515315991834Q172.376953125 76.98464534741834 172.66162109375 76.00173519116834Q172.9462890625 75.01882503491834 173.51025390625 74.13259456616834Q174.07421875 73.24636409741834 174.912109375 72.47829769116834Q175.75 71.71023128491834 176.8671875 71.09792659741834ZM183.8173828125 79.01491878491834Q183.8173828125 78.64968440991834 183.58642578125 78.34890315991834Q183.35546875 78.04812190991834 182.94189453125 77.83327815991834Q182.5283203125 77.61843440991834 181.94287109375 77.50027034741834Q181.357421875 77.38210628491834 180.6484375 77.38210628491834Q179.3056640625 77.38210628491834 178.02197265625 77.75271175366834Q176.73828125 78.12331722241834 175.6103515625 78.82155940991834Q175.341796875 78.99343440991834 175.341796875 79.24050472241834Q175.341796875 79.41237972241834 175.53515625 79.58962581616834Q175.728515625 79.76687190991834 176.0615234375 79.92800472241834Q176.39453125 80.08913753491834 176.845703125 80.23952815991834Q177.296875 80.38991878491834 177.8017578125 80.49734065991834Q178.306640625 80.60476253491834 178.84375 80.66921565991834Q179.380859375 80.73366878491834 179.896484375 80.73366878491834Q180.7236328125 80.73366878491834 181.43798828125 80.59939144116834Q182.15234375 80.46511409741834 182.68408203125 80.23415706616834Q183.2158203125 80.00320003491834 183.5166015625 79.69167659741834Q183.8173828125 79.38015315991834 183.8173828125 79.01491878491834ZM188.16796875 72.96088469078987Q188.08203125 72.96088469078987 187.84033203125 72.99848234703987Q187.5986328125 73.03608000328987 187.2763671875 73.08979094078987Q186.9541015625 73.14350187828987 186.599609375 73.21332609703987Q186.2451171875 73.28315031578987 185.93359375 73.33686125328987Q185.6220703125 73.39057219078987 185.39111328125 73.42816984703987Q185.16015625 73.46576750328987 185.0849609375 73.46576750328987Q184.365234375 73.46576750328987 184.365234375 72.71381437828987Q184.365234375 72.50971281578987 184.40283203125 72.31098234703987Q184.4404296875 72.11225187828987 184.537109375 71.94574797203987Q184.6337890625 71.77924406578987 184.794921875 71.66108000328987Q184.9560546875 71.54291594078987 185.203125 71.49994719078987Q186.4599609375 71.30658781578987 187.7060546875 71.09174406578987Q188.9521484375 70.87690031578987 190.2197265625 70.64057219078987Q190.4990234375 70.58686125328987 190.724609375 70.53852140953987Q190.9501953125 70.49018156578987 191.2294921875 70.40424406578987Q191.5302734375 70.31830656578987 191.884765625 70.23774015953987Q192.2392578125 70.15717375328987 192.59912109375 70.09272062828987Q192.958984375 70.02826750328987 193.29736328125 69.98529875328987Q193.6357421875 69.94233000328987 193.9150390625 69.94233000328987Q194.2587890625 69.94233000328987 194.43603515625 70.16254484703987Q194.61328125 70.38275969078987 194.61328125 70.78022062828987Q194.61328125 70.98432219078987 194.5810546875 71.17231047203987Q194.548828125 71.36029875328987 194.462890625 71.51068937828987Q194.376953125 71.66108000328987 194.2265625 71.75775969078987Q194.076171875 71.85443937828987 193.83984375 71.87592375328987Q193.2275390625 71.96186125328987 192.529296875 72.08539640953987Q191.8310546875 72.20893156578987 191.3154296875 72.35932219078987Q191.1005859375 72.42377531578987 190.9931640625 72.56879484703987Q190.8857421875 72.71381437828987 190.853515625 72.92865812828987Q190.8212890625 73.13275969078987 190.81591796875 73.34223234703987Q190.810546875 73.55170500328987 190.810546875 73.74506437828987Q190.810546875 74.19623625328987 190.84814453125 74.64740812828987Q190.8857421875 75.09858000328987 190.91796875 75.54975187828987Q191.0146484375 77.09662687828987 191.21337890625 78.61127531578987Q191.412109375 80.12592375328987 191.6484375 81.67279875328987Q191.669921875 81.72650969078987 191.669921875 81.78022062828987Q191.669921875 81.83393156578987 191.669921875 81.88764250328987Q191.669921875 82.47846281578987 191.00390625 82.72553312828987L190.5205078125 82.87592375328987Q190.3271484375 82.94037687828987 190.14453125 82.94037687828987Q189.865234375 82.94037687828987 189.693359375 82.76313078453987Q189.521484375 82.58588469078987 189.4677734375 82.24213469078987Q189.1669921875 80.39447844078987 188.94140625 78.56293547203987Q188.7158203125 76.73139250328987 188.6513671875 74.87299406578987Q188.6298828125 74.57221281578987 188.619140625 74.21772062828987Q188.6083984375 73.86322844078987 188.6083984375 73.48725187828987Q188.6083984375 72.96088469078987 188.16796875 72.96088469078987ZM194.5380859375 79.38174547997284Q194.35546875 79.38174547997284 194.26416015625 79.19912829247284Q194.1728515625 79.01651110497284 194.1728515625 78.68350329247284Q194.1728515625 78.62979235497284 194.1728515625 78.55996813622284Q194.1728515625 78.49014391747284 194.1943359375 78.28604235497284Q194.2265625 77.51260485497284 194.95703125 77.38369860497284L195.2041015625 77.36221422997284Q195.451171875 77.32998766747284 195.5908203125 77.20645251122284Q195.73046875 77.08291735497284 195.794921875 76.85733141747284Q195.9775390625 76.24502672997284 196.16015625 75.62197985497284Q196.3427734375 74.99893297997284 196.546875 74.38662829247284Q196.654296875 74.04287829247284 196.76708984375 73.65078844872284Q196.8798828125 73.25869860497284 197.01416015625 72.87197985497284Q197.1484375 72.48526110497284 197.32568359375 72.10928454247284Q197.5029296875 71.73330797997284 197.728515625 71.42178454247284Q197.8251953125 71.29287829247284 197.9970703125 71.15322985497284Q198.1689453125 71.01358141747284 198.38916015625 70.90078844872284Q198.609375 70.78799547997284 198.86181640625 70.71817126122284Q199.1142578125 70.64834704247284 199.361328125 70.64834704247284Q199.68359375 70.64834704247284 199.9951171875 70.85244860497284Q200.4140625 71.14248766747284 200.822265625 71.55069079247284Q201.23046875 71.95889391747284 201.7353515625 72.59268297997284Q202.240234375 73.22647204247284 202.90625 74.12344469872284Q203.572265625 75.02041735497284 204.5068359375 76.28799547997284Q204.646484375 76.44912829247284 204.80224609375 76.52969469872284Q204.9580078125 76.61026110497284 205.1728515625 76.61026110497284H205.78515625Q206.1611328125 76.61026110497284 206.37060546875 76.78750719872284Q206.580078125 76.96475329247284 206.580078125 77.27627672997284Q206.580078125 77.34072985497284 206.57470703125 77.42666735497284Q206.5693359375 77.51260485497284 206.537109375 77.59854235497284L206.3330078125 78.20010485497284Q206.3115234375 78.28604235497284 206.30078125 78.35049547997284Q206.2900390625 78.41494860497284 206.2900390625 78.47940172997284Q206.2900390625 78.70498766747284 206.4404296875 78.94131579247284L207.58984375 80.50967516747284Q207.783203125 80.79971422997284 207.783203125 81.05752672997284Q207.783203125 81.44424547997284 207.3427734375 81.73428454247284L206.9345703125 82.02432360497284Q206.7841796875 82.12100329247284 206.64990234375 82.17471422997284Q206.515625 82.22842516747284 206.3759765625 82.22842516747284Q206.1826171875 82.22842516747284 206.01611328125 82.11563219872284Q205.849609375 82.00283922997284 205.69921875 81.80947985497284Q205.18359375 81.07901110497284 204.66259765625 80.37002672997284Q204.1416015625 79.66104235497284 203.6044921875 78.96280016747284Q203.357421875 78.61905016747284 202.94921875 78.61905016747284Q201.638671875 78.67276110497284 200.35498046875 78.76406969872284Q199.0712890625 78.85537829247284 197.7822265625 78.98428454247284Q197.3203125 79.02725329247284 197.2021484375 79.47842516747284L196.71875 81.25088610497284Q196.525390625 81.95987047997284 195.859375 81.95987047997284H195.6875L195.3544921875 81.91690172997284Q194.9892578125 81.88467516747284 194.80126953125 81.69131579247284Q194.61328125 81.49795641747284 194.61328125 81.18643297997284Q194.61328125 81.12197985497284 194.6240234375 81.04678454247284Q194.634765625 80.97158922997284 194.65625 80.88565172997284Q194.7099609375 80.67080797997284 194.76904296875 80.44522204247284Q194.828125 80.21963610497284 194.892578125 80.00479235497284Q194.9140625 79.91885485497284 194.9248046875 79.84903063622284Q194.935546875 79.77920641747284 194.935546875 79.71475329247284Q194.935546875 79.38174547997284 194.677734375 79.38174547997284ZM199.6513671875 73.70987047997284Q199.5439453125 73.61319079247284 199.4580078125 73.54873766747284Q199.3720703125 73.48428454247284 199.275390625 73.48428454247284Q199.0068359375 73.48428454247284 198.8994140625 73.86026110497284Q198.6845703125 74.49405016747284 198.48583984375 75.11172594872284Q198.287109375 75.72940172997284 198.0830078125 76.37393297997284Q198.0615234375 76.42764391747284 198.0615234375 76.47061266747284Q198.0615234375 76.51358141747284 198.0615234375 76.56729235497284Q198.0615234375 76.96475329247284 198.48046875 76.96475329247284H198.587890625Q199.232421875 76.87881579247284 199.876953125 76.83047594872284Q200.521484375 76.78213610497284 201.166015625 76.74990954247284Q201.380859375 76.72842516747284 201.50439453125 76.63711657372284Q201.6279296875 76.54580797997284 201.6279296875 76.39541735497284Q201.6279296875 76.25576891747284 201.4990234375 76.06240954247284Q201.0478515625 75.46084704247284 200.59130859375 74.87539782372284Q200.134765625 74.28994860497284 199.6513671875 73.70987047997284Z" fill="#111"/>
<path d="M102.0 148.0 C103.2 145.6 105.7 137.6 109.3 133.7 C112.9 129.7 118.6 127.1 123.8 124.3 C129.0 121.5 134.9 118.2 140.6 116.8 C146.2 115.4 152.6 114.8 157.7 115.7 C162.8 116.6 166.7 119.7 170.9 122.2 C175.0 124.7 179.1 127.1 182.7 130.8 C186.2 134.5 189.1 139.7 192.2 144.5 C195.2 149.4 199.0 154.8 200.9 160.0 C202.7 165.2 203.6 170.5 203.4 176.0 C203.1 181.5 201.7 187.8 199.5 192.9 C197.3 198.0 193.9 202.2 190.2 206.4 C186.5 210.6 182.3 215.4 177.3 218.2 C172.3 221.0 165.8 222.1 160.0 223.1 C154.2 224.0 147.5 224.3 142.4 223.8 C137.3 223.3 133.5 222.6 129.3 220.0 C125.1 217.5 121.1 212.4 117.3 208.5 C113.4 204.6 109.2 201.2 106.1 196.5 C103.0 191.7 100.0 185.8 98.5 180.1 C96.9 174.4 97.1 165.3 96.8 162.3" fill="none" stroke="#111" stroke-linecap="round" stroke-linejoin="round" stroke-width="3.4"/>
<ellipse cx="162" cy="166" rx="3.6" ry="4.6" fill="#111"/><ellipse cx="184" cy="172" rx="3.6" ry="4.6" fill="#111"/>
<path d="M166 192 q9 9 17 -1" fill="none" stroke="#111" stroke-linecap="round" stroke-linejoin="round" stroke-width="3.4"/>
<path d="M179.3 216.4 C183.6 222.0 198.7 238.9 205.4 249.6 C212.2 260.3 216.5 270.5 219.8 280.6 C223.1 290.6 224.4 305.0 225.3 309.9" fill="none" stroke="#111" stroke-linecap="round" stroke-linejoin="round" stroke-width="3.4"/>
<path d="M208.1 252.6 C214.5 250.9 235.9 249.0 246.5 242.6 C257.1 236.1 267.5 218.7 271.6 213.9" fill="none" stroke="#111" stroke-linecap="round" stroke-linejoin="round" stroke-width="3.4"/>
<polygon points="263.7,155.0 298.0,148.0 307.7,209.2 274.3,215.5" fill="none" stroke="#111" stroke-linecap="round" stroke-linejoin="round" stroke-width="3.4"/>
<path d="M275.7 158.4 L287.6 156.3" fill="none" stroke="#111" stroke-linecap="round" stroke-linejoin="round" stroke-width="2.4"/>
<path d="M302.4 139.9 L308.4 129.5" fill="none" stroke="#111" stroke-linecap="round" stroke-linejoin="round" stroke-width="2.6"/>
<path d="M308.2 143.4 L320.9 137.5" fill="none" stroke="#111" stroke-linecap="round" stroke-linejoin="round" stroke-width="2.6"/>
<path d="M307.2 150.3 L318.0 152.2" fill="none" stroke="#111" stroke-linecap="round" stroke-linejoin="round" stroke-width="2.6"/>
</svg>